<svg width="1931" height="500" viewBox="0 0 1931 500" fill="none" xmlns="http://www.w3.org/2000/svg">
<path d="M414 378H85C82.2386 378 80 375.761 80 373V244.566V180.493C80 176.291 84.8685 173.963 88.1391 176.601L157.765 232.76C159.98 234.546 163.237 234.126 164.927 231.837L242.052 127.34C244.026 124.665 248.012 124.626 250.039 127.262L330.609 232.061C332.296 234.255 335.443 234.661 337.632 232.969L410.941 176.269C414.227 173.727 419 176.07 419 180.224V244.566V373C419 375.761 416.761 378 414 378Z" stroke="white" stroke-width="30"/>
<path d="M568.402 381.677C563.802 381.677 559.802 379.977 556.402 376.577C553.202 373.177 551.602 369.177 551.602 364.577V179.777C551.602 175.177 553.202 171.177 556.402 167.777C559.802 164.377 563.802 162.677 568.402 162.677H576.502C581.102 162.677 585.102 164.377 588.502 167.777C591.902 171.177 593.602 175.177 593.602 179.777V257.477C593.602 257.677 593.702 257.777 593.902 257.777C594.102 257.777 594.202 257.677 594.202 257.477L654.502 176.477C661.102 167.277 670.102 162.677 681.502 162.677H696.502C699.902 162.677 702.402 164.277 704.002 167.477C705.602 170.677 705.302 173.577 703.102 176.177L634.102 265.577C633.102 266.977 633.102 268.377 634.102 269.777L706.402 367.877C708.602 370.677 708.902 373.677 707.302 376.877C705.702 380.077 703.102 381.677 699.502 381.677H684.502C673.102 381.677 664.202 377.077 657.802 367.877L594.202 277.877C594.202 277.677 594.102 277.577 593.902 277.577C593.702 277.577 593.602 277.677 593.602 277.877V364.577C593.602 369.177 591.902 373.177 588.502 376.577C585.102 379.977 581.102 381.677 576.502 381.677H568.402ZM763.667 381.677C759.067 381.677 755.067 379.977 751.667 376.577C748.267 373.177 746.567 369.177 746.567 364.577V179.777C746.567 175.177 748.267 171.177 751.667 167.777C755.067 164.377 759.067 162.677 763.667 162.677H775.667C780.267 162.677 784.267 164.377 787.667 167.777C791.067 171.177 792.767 175.177 792.767 179.777V364.577C792.767 369.177 791.067 373.177 787.667 376.577C784.267 379.977 780.267 381.677 775.667 381.677H763.667ZM862.836 381.677C858.236 381.677 854.236 379.977 850.836 376.577C847.636 373.177 846.036 369.177 846.036 364.577V179.777C846.036 175.177 847.636 171.177 850.836 167.777C854.236 164.377 858.236 162.677 862.836 162.677H869.436C880.836 162.677 889.236 167.677 894.636 177.677L968.736 311.477C968.736 311.677 968.836 311.777 969.036 311.777C969.236 311.777 969.336 311.677 969.336 311.477V179.777C969.336 175.177 971.036 171.177 974.436 167.777C977.836 164.377 981.836 162.677 986.436 162.677H993.036C997.636 162.677 1001.54 164.377 1004.74 167.777C1008.14 171.177 1009.84 175.177 1009.84 179.777V364.577C1009.84 369.177 1008.14 373.177 1004.74 376.577C1001.54 379.977 997.636 381.677 993.036 381.677H986.436C975.036 381.677 966.636 376.677 961.236 366.677L887.136 232.877C887.136 232.677 887.036 232.577 886.836 232.577C886.636 232.577 886.536 232.677 886.536 232.877V364.577C886.536 369.177 884.836 373.177 881.436 376.577C878.036 379.977 874.036 381.677 869.436 381.677H862.836ZM1151.77 384.677C1119.57 384.677 1093.47 374.677 1073.47 354.677C1053.67 334.477 1043.77 306.977 1043.77 272.177C1043.77 236.977 1053.67 209.477 1073.47 189.677C1093.27 169.677 1120.67 159.677 1155.67 159.677C1170.07 159.677 1183.17 160.677 1194.97 162.677C1199.77 163.477 1203.77 165.877 1206.97 169.877C1210.17 173.677 1211.77 178.077 1211.77 183.077V184.277C1211.77 188.477 1210.07 191.877 1206.67 194.477C1203.27 197.077 1199.47 197.877 1195.27 196.877C1183.47 194.277 1171.77 192.977 1160.17 192.977C1135.97 192.977 1117.57 199.677 1104.97 213.077C1092.57 226.277 1086.37 245.977 1086.37 272.177C1086.37 297.577 1092.47 317.177 1104.67 330.977C1117.07 344.577 1133.77 351.377 1154.77 351.377C1163.37 351.377 1171.87 350.177 1180.27 347.777C1181.87 347.377 1182.67 346.277 1182.67 344.477V285.077C1182.67 283.277 1181.87 282.377 1180.27 282.377H1142.77C1138.37 282.377 1134.57 280.877 1131.37 277.877C1128.37 274.677 1126.87 270.877 1126.87 266.477C1126.87 261.877 1128.37 258.077 1131.37 255.077C1134.57 251.877 1138.37 250.277 1142.77 250.277H1205.77C1210.37 250.277 1214.37 251.977 1217.77 255.377C1221.17 258.777 1222.87 262.777 1222.87 267.377V354.677C1222.87 359.877 1221.37 364.577 1218.37 368.777C1215.37 372.977 1211.47 375.777 1206.67 377.177C1189.67 382.177 1171.37 384.677 1151.77 384.677ZM1356.74 380.177C1351.94 378.977 1348.04 376.377 1345.04 372.377C1342.04 368.177 1340.54 363.477 1340.54 358.277V354.977C1340.54 350.977 1342.14 347.877 1345.34 345.677C1348.74 343.477 1352.34 342.977 1356.14 344.177C1369.34 348.577 1382.34 350.777 1395.14 350.777C1408.14 350.777 1417.64 346.777 1423.64 338.777C1429.84 330.577 1432.94 316.877 1432.94 297.677V179.777C1432.94 175.177 1434.64 171.177 1438.04 167.777C1441.44 164.377 1445.44 162.677 1450.04 162.677H1459.64C1464.24 162.677 1468.14 164.377 1471.34 167.777C1474.74 171.177 1476.44 175.177 1476.44 179.777V305.777C1476.44 333.777 1470.24 353.977 1457.84 366.377C1445.44 378.577 1425.64 384.677 1398.44 384.677C1383.44 384.677 1369.54 383.177 1356.74 380.177ZM1664.14 272.177C1664.14 220.177 1645.14 194.177 1607.14 194.177C1569.14 194.177 1550.14 220.177 1550.14 272.177C1550.14 324.177 1569.14 350.177 1607.14 350.177C1645.14 350.177 1664.14 324.177 1664.14 272.177ZM1680.04 354.977C1662.24 374.777 1637.94 384.677 1607.14 384.677C1576.34 384.677 1551.94 374.777 1533.94 354.977C1516.14 335.177 1507.24 307.577 1507.24 272.177C1507.24 236.777 1516.14 209.177 1533.94 189.377C1551.94 169.577 1576.34 159.677 1607.14 159.677C1637.94 159.677 1662.24 169.577 1680.04 189.377C1698.04 209.177 1707.04 236.777 1707.04 272.177C1707.04 307.577 1698.04 335.177 1680.04 354.977ZM1782.46 284.477V347.477C1782.46 349.077 1783.36 350.077 1785.16 350.477C1792.16 351.477 1798.76 351.977 1804.96 351.977C1821.56 351.977 1833.66 348.977 1841.26 342.977C1849.06 336.777 1852.96 327.377 1852.96 314.777C1852.96 303.577 1848.46 295.377 1839.46 290.177C1830.66 284.777 1815.96 282.077 1795.36 282.077H1784.86C1783.26 282.077 1782.46 282.877 1782.46 284.477ZM1782.46 196.877V248.177C1782.46 249.977 1783.26 250.877 1784.86 250.877H1793.56C1812.16 250.877 1825.56 248.377 1833.76 243.377C1842.16 238.177 1846.36 230.577 1846.36 220.577C1846.36 210.977 1842.96 203.877 1836.16 199.277C1829.36 194.677 1818.26 192.377 1802.86 192.377C1795.86 192.377 1789.86 192.777 1784.86 193.577C1783.26 193.977 1782.46 195.077 1782.46 196.877ZM1757.86 382.277C1753.06 381.877 1749.06 379.877 1745.86 376.277C1742.66 372.477 1741.06 368.077 1741.06 363.077V181.277C1741.06 176.277 1742.66 171.977 1745.86 168.377C1749.06 164.577 1753.16 162.477 1758.16 162.077C1772.96 160.477 1787.26 159.677 1801.06 159.677C1857.06 159.677 1885.06 177.977 1885.06 214.577C1885.06 226.777 1880.96 237.377 1872.76 246.377C1864.56 255.377 1853.76 261.177 1840.36 263.777C1840.16 263.777 1840.06 263.877 1840.06 264.077C1840.06 264.477 1840.16 264.677 1840.36 264.677C1856.76 267.077 1869.56 273.177 1878.76 282.977C1888.16 292.577 1892.86 304.477 1892.86 318.677C1892.86 340.677 1885.66 357.177 1871.26 368.177C1856.86 379.177 1834.46 384.677 1804.06 384.677C1788.86 384.677 1773.46 383.877 1757.86 382.277Z" fill="white"/>
</svg>
