<svg width="500" height="83" viewBox="0 0 500 83" fill="none" xmlns="http://www.w3.org/2000/svg">
<path d="M94 73H21C18.2386 73 16 70.7614 16 68V41.2053V33.7275C16 29.5564 20.8063 27.219 24.0873 29.7945L32.0353 36.0335C34.2331 37.7587 37.4183 37.348 39.1066 35.1218L52.7381 17.1469C54.7142 14.5413 58.6184 14.5027 60.6455 17.0688L75.079 35.3398C76.7626 37.471 79.8395 37.8685 82.0095 36.2352L90.9931 29.4731C94.2881 26.9928 99 29.3436 99 33.4679V41.2053V68C99 70.7614 96.7614 73 94 73Z" stroke="#4356FF" stroke-width="8"/>
<path d="M134.941 78.6786C133.714 78.6786 132.647 78.2253 131.741 77.3186C130.887 76.4119 130.461 75.3453 130.461 74.1186V24.8386C130.461 23.6119 130.887 22.5453 131.741 21.6386C132.647 20.7319 133.714 20.2786 134.941 20.2786H137.101C138.327 20.2786 139.394 20.7319 140.301 21.6386C141.207 22.5453 141.661 23.6119 141.661 24.8386V45.5586C141.661 45.6119 141.687 45.6386 141.741 45.6386C141.794 45.6386 141.821 45.6119 141.821 45.5586L157.901 23.9586C159.661 21.5053 162.061 20.2786 165.101 20.2786H169.101C170.007 20.2786 170.674 20.7053 171.101 21.5586C171.527 22.4119 171.447 23.1853 170.861 23.8786L152.461 47.7186C152.194 48.0919 152.194 48.4653 152.461 48.8386L171.741 74.9986C172.327 75.7453 172.407 76.5453 171.981 77.3986C171.554 78.2519 170.861 78.6786 169.901 78.6786H165.901C162.861 78.6786 160.487 77.4519 158.781 74.9986L141.821 50.9986C141.821 50.9453 141.794 50.9186 141.741 50.9186C141.687 50.9186 141.661 50.9453 141.661 50.9986V74.1186C141.661 75.3453 141.207 76.4119 140.301 77.3186C139.394 78.2253 138.327 78.6786 137.101 78.6786H134.941ZM187.011 78.6786C185.785 78.6786 184.718 78.2253 183.811 77.3186C182.905 76.4119 182.451 75.3453 182.451 74.1186V24.8386C182.451 23.6119 182.905 22.5453 183.811 21.6386C184.718 20.7319 185.785 20.2786 187.011 20.2786H190.211C191.438 20.2786 192.505 20.7319 193.411 21.6386C194.318 22.5453 194.771 23.6119 194.771 24.8386V74.1186C194.771 75.3453 194.318 76.4119 193.411 77.3186C192.505 78.2253 191.438 78.6786 190.211 78.6786H187.011ZM213.456 78.6786C212.23 78.6786 211.163 78.2253 210.256 77.3186C209.403 76.4119 208.976 75.3453 208.976 74.1186V24.8386C208.976 23.6119 209.403 22.5453 210.256 21.6386C211.163 20.7319 212.23 20.2786 213.456 20.2786H215.216C218.256 20.2786 220.496 21.6119 221.936 24.2786L241.696 59.9586C241.696 60.0119 241.723 60.0386 241.776 60.0386C241.83 60.0386 241.856 60.0119 241.856 59.9586V24.8386C241.856 23.6119 242.31 22.5453 243.216 21.6386C244.123 20.7319 245.19 20.2786 246.416 20.2786H248.176C249.403 20.2786 250.443 20.7319 251.296 21.6386C252.203 22.5453 252.656 23.6119 252.656 24.8386V74.1186C252.656 75.3453 252.203 76.4119 251.296 77.3186C250.443 78.2253 249.403 78.6786 248.176 78.6786H246.416C243.376 78.6786 241.136 77.3453 239.696 74.6786L219.936 38.9986C219.936 38.9453 219.91 38.9186 219.856 38.9186C219.803 38.9186 219.776 38.9453 219.776 38.9986V74.1186C219.776 75.3453 219.323 76.4119 218.416 77.3186C217.51 78.2253 216.443 78.6786 215.216 78.6786H213.456ZM290.504 79.4786C281.918 79.4786 274.958 76.8119 269.624 71.4786C264.344 66.0919 261.704 58.7586 261.704 49.4786C261.704 40.0919 264.344 32.7586 269.624 27.4786C274.904 22.1453 282.211 19.4786 291.544 19.4786C295.384 19.4786 298.878 19.7453 302.024 20.2786C303.304 20.4919 304.371 21.1319 305.224 22.1986C306.078 23.2119 306.504 24.3853 306.504 25.7186V26.0386C306.504 27.1586 306.051 28.0653 305.144 28.7586C304.238 29.4519 303.224 29.6653 302.104 29.3986C298.958 28.7053 295.838 28.3586 292.744 28.3586C286.291 28.3586 281.384 30.1453 278.024 33.7186C274.718 37.2386 273.064 42.4919 273.064 49.4786C273.064 56.2519 274.691 61.4786 277.944 65.1586C281.251 68.7853 285.704 70.5986 291.304 70.5986C293.598 70.5986 295.864 70.2786 298.104 69.6386C298.531 69.5319 298.744 69.2386 298.744 68.7586V52.9186C298.744 52.4386 298.531 52.1986 298.104 52.1986H288.104C286.931 52.1986 285.918 51.7986 285.064 50.9986C284.264 50.1453 283.864 49.1319 283.864 47.9586C283.864 46.7319 284.264 45.7186 285.064 44.9186C285.918 44.0653 286.931 43.6386 288.104 43.6386H304.904C306.131 43.6386 307.198 44.0919 308.104 44.9986C309.011 45.9053 309.464 46.9719 309.464 48.1986V71.4786C309.464 72.8653 309.064 74.1186 308.264 75.2386C307.464 76.3586 306.424 77.1053 305.144 77.4786C300.611 78.8119 295.731 79.4786 290.504 79.4786ZM345.165 78.2786C343.885 77.9586 342.845 77.2653 342.045 76.1986C341.245 75.0786 340.845 73.8253 340.845 72.4386V71.5586C340.845 70.4919 341.272 69.6653 342.125 69.0786C343.032 68.4919 343.992 68.3586 345.005 68.6786C348.525 69.8519 351.992 70.4386 355.405 70.4386C358.872 70.4386 361.405 69.3719 363.005 67.2386C364.658 65.0519 365.485 61.3986 365.485 56.2786V24.8386C365.485 23.6119 365.938 22.5453 366.845 21.6386C367.752 20.7319 368.818 20.2786 370.045 20.2786H372.605C373.832 20.2786 374.872 20.7319 375.725 21.6386C376.632 22.5453 377.085 23.6119 377.085 24.8386V58.4386C377.085 65.9053 375.432 71.2919 372.125 74.5986C368.818 77.8519 363.538 79.4786 356.285 79.4786C352.285 79.4786 348.578 79.0786 345.165 78.2786ZM427.138 49.4786C427.138 35.6119 422.071 28.6786 411.938 28.6786C401.805 28.6786 396.738 35.6119 396.738 49.4786C396.738 63.3453 401.805 70.2786 411.938 70.2786C422.071 70.2786 427.138 63.3453 427.138 49.4786ZM431.378 71.5586C426.631 76.8386 420.151 79.4786 411.938 79.4786C403.725 79.4786 397.218 76.8386 392.418 71.5586C387.671 66.2786 385.298 58.9186 385.298 49.4786C385.298 40.0386 387.671 32.6786 392.418 27.3986C397.218 22.1186 403.725 19.4786 411.938 19.4786C420.151 19.4786 426.631 22.1186 431.378 27.3986C436.178 32.6786 438.578 40.0386 438.578 49.4786C438.578 58.9186 436.178 66.2786 431.378 71.5586ZM458.688 52.7586V69.5586C458.688 69.9853 458.928 70.2519 459.408 70.3586C461.275 70.6253 463.035 70.7586 464.688 70.7586C469.115 70.7586 472.341 69.9586 474.368 68.3586C476.448 66.7053 477.488 64.1986 477.488 60.8386C477.488 57.8519 476.288 55.6653 473.888 54.2786C471.541 52.8386 467.621 52.1186 462.128 52.1186H459.328C458.901 52.1186 458.688 52.3319 458.688 52.7586ZM458.688 29.3986V43.0786C458.688 43.5586 458.901 43.7986 459.328 43.7986H461.648C466.608 43.7986 470.181 43.1319 472.368 41.7986C474.608 40.4119 475.728 38.3853 475.728 35.7186C475.728 33.1586 474.821 31.2653 473.008 30.0386C471.195 28.8119 468.235 28.1986 464.128 28.1986C462.261 28.1986 460.661 28.3053 459.328 28.5186C458.901 28.6253 458.688 28.9186 458.688 29.3986ZM452.128 78.8386C450.848 78.7319 449.781 78.1986 448.928 77.2386C448.075 76.2253 447.648 75.0519 447.648 73.7186V25.2386C447.648 23.9053 448.075 22.7586 448.928 21.7986C449.781 20.7853 450.875 20.2253 452.208 20.1186C456.155 19.6919 459.968 19.4786 463.648 19.4786C478.581 19.4786 486.048 24.3586 486.048 34.1186C486.048 37.3719 484.955 40.1986 482.768 42.5986C480.581 44.9986 477.701 46.5453 474.128 47.2386C474.075 47.2386 474.048 47.2653 474.048 47.3186C474.048 47.4253 474.075 47.4786 474.128 47.4786C478.501 48.1186 481.915 49.7453 484.368 52.3586C486.875 54.9186 488.128 58.0919 488.128 61.8786C488.128 67.7453 486.208 72.1453 482.368 75.0786C478.528 78.0119 472.555 79.4786 464.448 79.4786C460.395 79.4786 456.288 79.2653 452.128 78.8386Z" fill="#25324B"/>
</svg>
